<svg width="20" height="20" viewBox="0 0 20 20" fill="none" xmlns="http://www.w3.org/2000/svg">
<path d="M19.1347 9.36992L15.2675 12.7069L16.4457 17.6973C16.5108 17.9682 16.494 18.2523 16.3976 18.5137C16.3013 18.7751 16.1296 19.002 15.9043 19.1659C15.679 19.3298 15.4102 19.4232 15.1318 19.4344C14.8534 19.4455 14.578 19.374 14.3403 19.2287L10.0004 16.5577L5.65801 19.2287C5.42033 19.3731 5.14523 19.444 4.86734 19.4324C4.58944 19.4209 4.32119 19.3273 4.09636 19.1636C3.87153 18.9998 3.70016 18.7732 3.60385 18.5123C3.50754 18.2514 3.49059 17.9678 3.55512 17.6973L4.73762 12.7069L0.870435 9.36992C0.660144 9.18817 0.508058 8.9485 0.43317 8.68083C0.358282 8.41316 0.363911 8.12936 0.449354 7.86487C0.534797 7.60038 0.696268 7.36693 0.9136 7.19366C1.13093 7.02039 1.3945 6.91499 1.67137 6.89062L6.74168 6.48156L8.69762 1.74812C8.80349 1.49015 8.98368 1.26949 9.21528 1.11419C9.44689 0.958897 9.71944 0.875977 9.99829 0.875977C10.2771 0.875977 10.5497 0.958897 10.7813 1.11419C11.0129 1.26949 11.1931 1.49015 11.299 1.74812L13.254 6.48156L18.3243 6.89062C18.6018 6.91409 18.8661 7.0189 19.0842 7.19192C19.3023 7.36495 19.4646 7.5985 19.5505 7.86331C19.6365 8.12812 19.6424 8.41241 19.5675 8.68057C19.4927 8.94873 19.3403 9.18882 19.1296 9.37078L19.1347 9.36992Z" fill="#FF0000"/>
</svg>
