<svg width="32" height="32" viewBox="0 0 32 32" fill="none" xmlns="http://www.w3.org/2000/svg">
<path d="M25.7309 12.7546H6.26961C5.87577 12.7551 5.48711 12.8445 5.1327 13.0163C4.77829 13.1881 4.46729 13.4377 4.22295 13.7466C3.97962 14.0546 3.80958 14.414 3.72573 14.7975C3.64187 15.181 3.64639 15.5785 3.73895 15.96L5.82561 24.504C6.12773 25.6048 6.78369 26.5756 7.69228 27.2666C8.60161 27.9586 9.71495 28.3333 10.8603 28.3333H21.1376C22.2829 28.3333 23.3963 27.9586 24.3056 27.2666C25.2142 26.5756 25.8702 25.6048 26.1723 24.504L28.2589 15.9613C28.3994 15.3854 28.3378 14.7787 28.0844 14.2427C27.831 13.7068 27.4012 13.2742 26.8669 13.0173C26.5115 12.8466 26.1226 12.7569 25.7283 12.7546M10.7829 17.9466V23.14M16.0003 17.9466V23.14M21.2176 17.9466V23.14M25.1309 12.7546C25.1305 11.56 24.894 10.3773 24.4349 9.27438C23.9759 8.17148 23.3035 7.17016 22.4563 6.32796C20.7409 4.62196 18.4196 3.66503 16.0003 3.66663C13.581 3.66503 11.2596 4.62196 9.54428 6.32796C8.6973 7.17027 8.0251 8.17164 7.56633 9.27454C7.10755 10.3774 6.87123 11.5601 6.87095 12.7546" stroke="#FF0000" stroke-width="2" stroke-linecap="round" stroke-linejoin="round"/>
</svg>
