<svg width="24" height="24" viewBox="0 0 24 24" fill="none" xmlns="http://www.w3.org/2000/svg">
<path d="M2.45383 7.93967C2.73512 7.65847 3.11658 7.50049 3.51433 7.50049C3.91207 7.50049 4.29354 7.65847 4.57483 7.93967L11.9998 15.3647L19.4248 7.93967C19.7077 7.66644 20.0866 7.51524 20.4799 7.51866C20.8732 7.52208 21.2494 7.67983 21.5276 7.95794C21.8057 8.23606 21.9634 8.61228 21.9668 9.00557C21.9703 9.39887 21.8191 9.77777 21.5458 10.0607L13.0603 18.5462C12.779 18.8274 12.3976 18.9854 11.9998 18.9854C11.6021 18.9854 11.2206 18.8274 10.9393 18.5462L2.45383 10.0607C2.17262 9.77938 2.01465 9.39792 2.01465 9.00017C2.01465 8.60243 2.17262 8.22096 2.45383 7.93967Z" fill="#FF0000"/>
</svg>
