<svg width="16" height="16" viewBox="0 0 16 16" fill="none" xmlns="http://www.w3.org/2000/svg">
<path d="M9.85642 7.99996L15.0517 2.80465C15.2983 2.55851 15.437 2.22451 15.4373 1.87612C15.4376 1.52772 15.2995 1.19348 15.0534 0.946911C14.8072 0.700342 14.4732 0.561649 14.1248 0.561341C13.7765 0.561033 13.4422 0.699137 13.1956 0.94527L8.00032 6.14058L2.80501 0.94527C2.55844 0.698702 2.22402 0.560181 1.87532 0.560181C1.52662 0.560181 1.1922 0.698702 0.945636 0.94527C0.699068 1.19184 0.560547 1.52626 0.560547 1.87496C0.560547 2.22366 0.699068 2.55808 0.945636 2.80465L6.14095 7.99996L0.945636 13.1953C0.699068 13.4418 0.560547 13.7763 0.560547 14.125C0.560547 14.4737 0.699068 14.8081 0.945636 15.0546C1.1922 15.3012 1.52662 15.4397 1.87532 15.4397C2.22402 15.4397 2.55844 15.3012 2.80501 15.0546L8.00032 9.85933L13.1956 15.0546C13.4422 15.3012 13.7766 15.4397 14.1253 15.4397C14.474 15.4397 14.8084 15.3012 15.055 15.0546C15.3016 14.8081 15.4401 14.4737 15.4401 14.125C15.4401 13.7763 15.3016 13.4418 15.055 13.1953L9.85642 7.99996Z" fill="black"/>
</svg>
